<svg xmlns="http://www.w3.org/2000/svg" version="1.1" xmlns:xlink="http://www.w3.org/1999/xlink" xmlns:svgjs="http://svgjs.dev/svgjs" width="1500" height="1500" viewBox="0 0 1500 1500"><g transform="matrix(1,0,0,1,-0.21332335329316265,-0.21332335329350371)"><svg viewBox="0 0 334 334" data-background-color="#ffffff" preserveAspectRatio="xMidYMid meet" height="1500" width="1500" xmlns="http://www.w3.org/2000/svg" xmlns:xlink="http://www.w3.org/1999/xlink"><g id="tight-bounds" transform="matrix(1,0,0,1,0.04749999999998522,0.04750000000001364)"><svg viewBox="0 0 333.90454557049503 333.90454557049503" height="333.90454557049503" width="333.90454557049503"><g><svg></svg></g><g><svg viewBox="0 0 333.90454557049503 333.90454557049503" height="333.90454557049503" width="333.90454557049503"><g><path d="M0 166.952c0-92.205 74.747-166.952 166.952-166.952 92.205 0 166.952 74.747 166.953 166.952 0 92.205-74.747 166.952-166.953 166.953-92.205 0-166.952-74.747-166.952-166.953zM166.952 329.8c89.938 0 162.847-72.909 162.847-162.848 0-89.938-72.909-162.847-162.847-162.847-89.938 0-162.847 72.909-162.847 162.847 0 89.938 72.909 162.847 162.847 162.848z" data-fill-palette-color="tertiary" fill="#556970" stroke="transparent"></path><ellipse rx="160.27418187383762" ry="160.27418187383762" cx="166.95227278524752" cy="166.95227278524752" fill="#556970" stroke="transparent" stroke-width="0" fill-opacity="1" data-fill-palette-color="tertiary"></ellipse></g><g transform="matrix(1,0,0,1,69.57256718688589,71.17305217166896)"><svg viewBox="0 0 194.75941119672325 191.55844122715712" height="191.55844122715712" width="194.75941119672325"><g><svg viewBox="0 0 194.75941119672325 191.55844122715712" height="191.55844122715712" width="194.75941119672325"><g><svg viewBox="0 0 213.15844122715708 209.65507384205821" height="191.55844122715712" width="194.75941119672325"><g transform="matrix(1,0,0,1,0,126.47948670810807)"><svg viewBox="0 0 213.15844122715708 83.17558713395015" height="83.17558713395015" width="213.15844122715708"><g id="textblocktransform"><svg viewBox="0 0 213.15844122715708 83.17558713395015" height="83.17558713395015" width="213.15844122715708" id="textblock"><g><svg viewBox="0 0 213.15844122715708 49.82026925164535" height="49.82026925164535" width="213.15844122715708"><g transform="matrix(1,0,0,1,0,0)"><svg width="213.15844122715708" viewBox="2.25 -41.99 195.74 45.75" height="49.82026925164535" data-palette-color="#ffffff"><path d="M33.45-27.25L16.6-27.25 16.6-34.23 2.78-34.23 2.78-37.74 16.6-37.74 16.6-41.75 20.51-41.75 20.51-37.74 29.54-37.74 29.54-41.75 33.45-41.75 33.45-37.74 47.22-37.74 47.22-34.23 33.45-34.23 33.45-27.25ZM20.51-34.23L20.51-30.52 29.54-30.52 29.54-34.23 20.51-34.23ZM15.23-8.2L11.57-8.2 11.57-12.84Q9.47-12.21 7.42-11.47 5.37-10.74 3.27-10.06L3.27-10.06 2.25-13.96Q4.59-14.5 6.93-15.01 9.28-15.53 11.57-16.21L11.57-16.21 11.57-21.88 3.22-21.88 3.22-25.39 11.57-25.39 11.57-29.64 15.23-29.64 15.23-8.2ZM42.82-9.28L42.82-9.28Q42.24-9.28 40.87-9.3 39.5-9.33 38.16-9.4 36.82-9.47 36.28-9.67L36.28-9.67Q34.67-10.21 34.67-12.06L34.67-12.06 34.67-29.64 38.33-29.64 38.33-23.49Q41.7-25.34 44.82-27.88L44.82-27.88 47.36-24.71Q45.26-23.24 42.97-22.07 40.67-20.9 38.33-19.82L38.33-19.82 38.33-13.92Q38.33-13.33 39.04-13.09 39.75-12.84 40.58-12.79 41.41-12.74 41.75-12.74L41.75-12.74Q43.21-12.74 43.73-13.26 44.24-13.77 44.26-14.7 44.29-15.63 44.34-16.75L44.34-16.75Q45.17-16.36 46.02-16.06 46.88-15.77 47.75-15.53L47.75-15.53Q47.66-13.53 47.39-12.13 47.12-10.74 46.14-10.01 45.17-9.28 42.82-9.28ZM31.69-9.23L18.21-9.23 18.21-24.51 31.69-24.51 31.69-9.23ZM21.68-21.24L21.68-12.5 28.22-12.5 28.22-21.24 21.68-21.24ZM47.51 1.76L42.82 3.42Q41.75 1.03 40.53-1.29 39.31-3.61 37.89-5.81L37.89-5.81 41.89-7.18Q43.46-5.08 44.87-2.83 46.29-0.59 47.51 1.76L47.51 1.76ZM6.84 3.52L6.84 3.52 2.44 1.86Q5.37-2.2 6.93-6.93L6.93-6.93 11.08-5.96Q10.35-3.47 9.3-1.07 8.25 1.32 6.84 3.52ZM34.47 1.95L29.74 2.73Q29.15 0.59 28.37-1.51 27.59-3.61 26.66-5.62L26.66-5.62 30.76-6.49Q31.88-4.49 32.79-2.34 33.69-0.2 34.47 1.95L34.47 1.95ZM22.66 2.05L17.97 2.73Q17.63 0.63 17.14-1.42 16.65-3.47 15.97-5.47L15.97-5.47 20.07-6.15Q20.8-4.15 21.46-2.1 22.12-0.05 22.66 2.05L22.66 2.05ZM53.76-15.58L53.76-15.58Q53.32-16.55 52.88-17.46 52.44-18.36 52-19.29L52-19.29Q53.61-19.58 55.47-20.12 57.32-20.65 59.03-21.53 60.74-22.41 61.98-23.73 63.23-25.05 63.62-26.9L63.62-26.9 53.12-26.9 53.12-30.42 64.26-30.42Q64.35-31.54 64.35-32.69 64.35-33.84 64.45-34.91L64.45-34.91 59.23-34.91Q58.64-33.94 57.96-32.98 57.27-32.03 56.59-31.1L56.59-31.1Q55.81-31.59 55.03-32.08 54.25-32.57 53.42-33.06L53.42-33.06Q54.98-35.06 56.25-37.33 57.52-39.6 58.3-41.99L58.3-41.99 62.3-41.26Q62.01-40.53 61.72-39.79 61.42-39.06 61.03-38.38L61.03-38.38 76.61-38.38 76.61-34.91 68.31-34.91Q68.26-33.79 68.23-32.67 68.21-31.54 68.11-30.42L68.11-30.42 77.15-30.42 77.15-26.9 67.62-26.9Q67.23-24.9 66.21-23.19L66.21-23.19 68.41-24.61Q70.85-23.68 73.24-22.61 75.63-21.53 77.93-20.26L77.93-20.26 75.05-17.58Q72.95-19.04 70.6-20.36 68.26-21.68 65.87-22.66L65.87-22.66Q64.45-20.8 62.45-19.43 60.45-18.07 58.2-17.14 55.95-16.21 53.76-15.58ZM96.09-19.48L78.51-19.48 78.51-38.23 96.09-38.23 96.09-19.48ZM82.42-34.52L82.42-23.19 92.09-23.19 92.09-34.52 82.42-34.52ZM62.69 3.76L58.4 3.76 58.4-16.85 91.94-16.85 91.94 3.52 87.64 3.52 87.64 1.86 62.69 1.86 62.69 3.76ZM62.69-13.23L62.69-9.42 87.64-9.42 87.64-13.23 62.69-13.23ZM62.69-5.96L62.69-1.76 87.64-1.76 87.64-5.96 62.69-5.96ZM141.99 3.71L137.69 3.71 137.69-10.06 120.99-6.64 119.97-10.74 137.69-14.4 137.69-41.7 141.99-41.7 141.99-15.28 147.75-16.5 147.75-12.16 141.99-10.94 141.99 3.71ZM115.18 3.71L111.23 3.71 111.23-17.63Q109.86-13.92 108.1-10.4 106.34-6.88 103.9-3.71L103.9-3.71Q103.41-4.79 102.95-5.86 102.49-6.93 102-8.01L102-8.01Q105.07-11.67 107.22-16.02 109.37-20.36 110.88-24.85L110.88-24.85 102.39-24.85 102.39-28.76 111.23-28.76 111.23-35.55Q109.42-35.35 107.61-35.16 105.81-34.96 104-34.86L104-34.86Q103.66-35.79 103.24-36.69 102.83-37.6 102.44-38.53L102.44-38.53Q105.17-38.67 108.17-38.99 111.18-39.31 114.13-39.92 117.08-40.53 119.62-41.5L119.62-41.5 122.46-37.94Q118.94-36.91 115.18-36.18L115.18-36.18 115.18-28.76 121.97-28.76 121.97-24.85 115.18-24.85 115.18-19.63 116.69-20.51Q118.35-18.85 119.97-17.07 121.58-15.28 122.94-13.28L122.94-13.28 119.92-11.13Q117.72-14.6 115.18-17.77L115.18-17.77 115.18 3.71ZM134.66-33.11L131.73-29.98Q130.07-31.54 128.34-32.96 126.61-34.38 124.75-35.69L124.75-35.69 127.29-38.53Q129.24-37.35 131.1-35.99 132.95-34.62 134.66-33.11L134.66-33.11ZM133.25-21.73L130.56-18.26Q128.75-19.87 126.9-21.36 125.04-22.85 123.04-24.22L123.04-24.22 125.73-27.1Q127.63-25.83 129.56-24.51 131.49-23.19 133.25-21.73L133.25-21.73ZM167.03 3.52L167.03 3.52Q166.55 2.49 166.08 1.49 165.62 0.49 165.08-0.49L165.08-0.49Q168.6-1.32 172.16-2.66 175.72-4 178.7-6.1L178.7-6.1Q176.26-8.69 174.58-11.79 172.89-14.89 172.21-18.41L172.21-18.41 176.41-18.41Q177.68-12.79 181.78-8.69L181.78-8.69Q186.71-13.62 189.1-20.26L189.1-20.26 169.77-20.26 169.77-24.17 179.73-24.17 179.73-30.96 168.11-30.96 168.11-34.96 179.73-34.96 179.73-41.7 183.83-41.7 183.83-34.96 196.67-34.96 196.67-30.96 183.83-30.96 183.83-24.17 192.13-24.17 194.28-22.17Q192.81-17.72 190.52-13.57 188.22-9.42 184.9-6.1L184.9-6.1Q190.81-2.1 197.99-1.07L197.99-1.07Q197.4 0 196.94 1.1 196.48 2.2 196.04 3.32L196.04 3.32Q192.23 2.29 188.57 0.68 184.9-0.93 181.73-3.32L181.73-3.32Q178.46-0.88 174.72 0.81 170.99 2.49 167.03 3.52ZM155.22 3.52L155.22 3.52Q154.88 2.39 154.53 1.27 154.19 0.15 153.8-0.93L153.8-0.93Q154.44-0.93 155.27-0.85 156.1-0.78 156.9-0.85 157.71-0.93 158.24-1.34 158.78-1.76 158.78-2.73L158.78-2.73 158.78-13.43Q157.32-12.94 155.85-12.55 154.39-12.16 152.87-11.77L152.87-11.77 152.24-16.06Q153.9-16.46 155.53-16.82 157.17-17.19 158.78-17.58L158.78-17.58 158.78-28.42 152.53-28.42 152.53-32.37 158.78-32.37 158.78-41.7 162.79-41.7 162.79-32.37 167.33-32.37 167.33-28.42 162.79-28.42 162.79-18.7Q164.01-19.09 165.2-19.48 166.4-19.87 167.57-20.31L167.57-20.31 167.57-16.5Q166.4-16.02 165.2-15.58 164.01-15.14 162.79-14.7L162.79-14.7 162.79-1.37Q162.79-0.29 162.49 0.78 162.2 1.86 161.13 2.39L161.13 2.39Q159.9 3.03 158.24 3.25 156.58 3.47 155.22 3.52Z" opacity="1" transform="matrix(1,0,0,1,0,0)" fill="#ffffff" class="wordmark-text-0" data-fill-palette-color="quaternary" id="text-0"></path></svg></g></svg></g><g transform="matrix(1,0,0,1,0,61.58163913549678)"><svg viewBox="0 0 213.15844122715708 21.593947998453366" height="21.593947998453366" width="213.15844122715708"><g transform="matrix(1,0,0,1,0,0)"><svg width="213.15844122715708" viewBox="0.5 -38.6 390.87 39.6" height="21.593947998453366" data-palette-color="#ffffff"><path d="M25.05-35.2L39.15-1.4Q39.3-0.95 40.35-0.95L40.35-0.95 40.35 0 30.2 0 30.2-0.95Q30.85-0.95 31.1-1.25 31.35-1.55 31.2-1.85L31.2-1.85 28.45-8.9 12.15-8.9 9.4-1.85 9.35-1.7Q9.35-1.4 9.63-1.18 9.9-0.95 10.35-0.95L10.35-0.95 10.35 0 0.5 0 0.5-0.95Q1.5-0.95 1.7-1.4L1.7-1.4 15.6-35.2Q15.75-35.5 15.75-35.75L15.75-35.75Q15.75-36.2 15.35-36.38 14.95-36.55 14.5-36.55L14.5-36.55 14.5-37.5 26.15-37.5 26.15-36.55Q25.7-36.55 25.3-36.38 24.9-36.2 24.9-35.75L24.9-35.75Q24.9-35.5 25.05-35.2L25.05-35.2ZM26.2-14.65L20.3-29.7 14.4-14.65 26.2-14.65ZM44.55-36Q44.55-36.25 44.15-36.4 43.75-36.55 43.35-36.55L43.35-36.55 43.35-37.5 52.55-37.5 52.55-36.55Q52.15-36.55 51.75-36.4 51.35-36.25 51.35-36L51.35-36 51.35-1.5Q51.35-1.25 51.75-1.1 52.15-0.95 52.55-0.95L52.55-0.95 52.55 0 43.35 0 43.35-0.95Q43.75-0.95 44.15-1.1 44.55-1.25 44.55-1.5L44.55-1.5 44.55-36ZM95.94-38.55L96.89-38.55 96.89-30.55 95.94-30.55Q95.94-30.9 95.79-31.25 95.64-31.6 95.39-31.6L95.39-31.6 79.19-31.6 79.19-22.75 92.29-22.75Q92.54-22.75 92.69-23.1 92.84-23.45 92.84-23.8L92.84-23.8 93.79-23.8 93.79-15.8 92.84-15.8Q92.84-16.15 92.69-16.5 92.54-16.85 92.29-16.85L92.29-16.85 79.19-16.85 79.19-1.5Q79.19-1.25 79.57-1.1 79.94-0.95 80.34-0.95L80.34-0.95 80.34 0 71.54 0 71.54-0.95Q71.94-0.95 72.32-1.1 72.69-1.25 72.69-1.5L72.69-1.5 72.69-36Q72.69-36.25 72.32-36.4 71.94-36.55 71.59-36.55L71.59-36.55 71.59-37.5 95.39-37.5Q95.64-37.5 95.79-37.85 95.94-38.2 95.94-38.55L95.94-38.55ZM119.39 0.8Q113.59 0.8 109.02-1.88 104.44-4.55 101.92-8.97 99.39-13.4 99.39-18.35L99.39-18.35Q99.39-23.35 101.79-27.98 104.19-32.6 108.74-35.5 113.29-38.4 119.39-38.4L119.39-38.4Q125.34-38.4 129.84-35.65 134.34-32.9 136.74-28.33 139.14-23.75 139.14-18.35L139.14-18.35Q139.14-13.55 136.77-9.13 134.39-4.7 129.89-1.95 125.39 0.8 119.39 0.8L119.39 0.8ZM119.44-5.8Q123.19-5.8 126.17-7.38 129.14-8.95 130.82-11.83 132.49-14.7 132.49-18.35L132.49-18.35Q132.49-22.2 130.89-25.25 129.29-28.3 126.29-30.08 123.29-31.85 119.19-31.85L119.19-31.85Q115.44-31.85 112.52-30.08 109.59-28.3 107.94-25.2 106.29-22.1 106.29-18.35L106.29-18.35Q106.29-14.45 108.22-11.6 110.14-8.75 113.17-7.28 116.19-5.8 119.44-5.8L119.44-5.8ZM163.29-16.3L172.34-1.3Q172.54-0.95 173.69-0.95L173.69-0.95 173.69 0 163.54 0 163.54-0.95Q164.24-0.95 164.49-1.2 164.74-1.45 164.54-1.7L164.54-1.7 156.14-15.85 150.99-15.85 150.99-1.5Q150.99-1.25 151.39-1.1 151.79-0.95 152.14-0.95L152.14-0.95 152.14 0 143.14 0 143.14-0.95Q143.49-0.95 143.89-1.1 144.29-1.25 144.29-1.5L144.29-1.5 144.29-36Q144.29-36.25 143.91-36.4 143.54-36.55 143.19-36.55L143.19-36.55 143.19-37.5 158.44-37.5Q165.04-37.5 168.41-34.52 171.79-31.55 171.79-26.85L171.79-26.85Q171.79-22.5 169.41-19.85 167.04-17.2 163.29-16.3L163.29-16.3ZM159.34-31.7L150.99-31.7 150.99-21.9 159.19-21.9Q162.29-21.9 163.84-23.35 165.39-24.8 165.39-26.85L165.39-26.85Q165.39-28.85 163.64-30.28 161.89-31.7 159.34-31.7L159.34-31.7ZM215.58-38.55L216.53-38.55 216.53-30.55 215.58-30.55Q215.58-30.9 215.43-31.25 215.28-31.6 215.03-31.6L215.03-31.6 198.83-31.6 198.83-22.75 211.93-22.75Q212.18-22.75 212.33-23.1 212.48-23.45 212.48-23.8L212.48-23.8 213.43-23.8 213.43-15.8 212.48-15.8Q212.48-16.15 212.33-16.5 212.18-16.85 211.93-16.85L211.93-16.85 198.83-16.85 198.83-1.5Q198.83-1.25 199.21-1.1 199.58-0.95 199.98-0.95L199.98-0.95 199.98 0 191.18 0 191.18-0.95Q191.58-0.95 191.96-1.1 192.33-1.25 192.33-1.5L192.33-1.5 192.33-36Q192.33-36.25 191.96-36.4 191.58-36.55 191.23-36.55L191.23-36.55 191.23-37.5 215.03-37.5Q215.28-37.5 215.43-37.85 215.58-38.2 215.58-38.55L215.58-38.55ZM237.08 0.55Q232.48 0.55 228.88-1.35 225.28-3.25 223.28-6.88 221.28-10.5 221.28-15.4L221.28-15.4 221.28-36Q221.28-36.25 220.86-36.4 220.43-36.55 220.03-36.55L220.03-36.55 220.03-37.5 229.68-37.5 229.68-36.55Q229.28-36.55 228.86-36.4 228.43-36.25 228.43-36L228.43-36 228.43-16.9Q228.43-11.5 230.61-8.6 232.78-5.7 237.08-5.7L237.08-5.7Q241.78-5.7 243.36-8.7 244.93-11.7 244.93-16.5L244.93-16.5 244.93-36Q244.93-36.25 244.51-36.4 244.08-36.55 243.68-36.55L243.68-36.55 243.68-37.5 253.38-37.5 253.38-36.55Q252.98-36.55 252.56-36.4 252.13-36.25 252.13-36L252.13-36 252.13-16.3Q252.13-8.35 248.51-3.9 244.88 0.55 237.08 0.55L237.08 0.55ZM287.83-38.5L288.78-38.5 288.78-30.8 287.83-30.8Q287.83-31.1 287.68-31.45 287.53-31.8 287.28-31.8L287.28-31.8 276.13-31.8 276.13-1.5Q276.13-1.25 276.53-1.1 276.93-0.95 277.33-0.95L277.33-0.95 277.33 0 268.13 0 268.13-0.95Q268.53-0.95 268.93-1.1 269.33-1.25 269.33-1.5L269.33-1.5 269.33-31.8 258.13-31.8Q257.88-31.8 257.73-31.45 257.58-31.1 257.58-30.8L257.58-30.8 256.63-30.8 256.63-38.5 257.58-38.5Q257.58-38.2 257.73-37.85 257.88-37.5 258.13-37.5L258.13-37.5 287.28-37.5Q287.53-37.5 287.68-37.85 287.83-38.2 287.83-38.5L287.83-38.5ZM309.08 0.55Q304.48 0.55 300.88-1.35 297.28-3.25 295.28-6.88 293.28-10.5 293.28-15.4L293.28-15.4 293.28-36Q293.28-36.25 292.85-36.4 292.43-36.55 292.03-36.55L292.03-36.55 292.03-37.5 301.68-37.5 301.68-36.55Q301.28-36.55 300.85-36.4 300.43-36.25 300.43-36L300.43-36 300.43-16.9Q300.43-11.5 302.6-8.6 304.78-5.7 309.08-5.7L309.08-5.7Q313.78-5.7 315.35-8.7 316.93-11.7 316.93-16.5L316.93-16.5 316.93-36Q316.93-36.25 316.5-36.4 316.08-36.55 315.68-36.55L315.68-36.55 315.68-37.5 325.38-37.5 325.38-36.55Q324.98-36.55 324.55-36.4 324.13-36.25 324.13-36L324.13-36 324.13-16.3Q324.13-8.35 320.5-3.9 316.88 0.55 309.08 0.55L309.08 0.55ZM350.52-16.3L359.57-1.3Q359.77-0.95 360.92-0.95L360.92-0.95 360.92 0 350.77 0 350.77-0.95Q351.47-0.95 351.72-1.2 351.97-1.45 351.77-1.7L351.77-1.7 343.37-15.85 338.22-15.85 338.22-1.5Q338.22-1.25 338.62-1.1 339.02-0.95 339.37-0.95L339.37-0.95 339.37 0 330.37 0 330.37-0.95Q330.72-0.95 331.12-1.1 331.52-1.25 331.52-1.5L331.52-1.5 331.52-36Q331.52-36.25 331.15-36.4 330.77-36.55 330.42-36.55L330.42-36.55 330.42-37.5 345.67-37.5Q352.27-37.5 355.65-34.52 359.02-31.55 359.02-26.85L359.02-26.85Q359.02-22.5 356.65-19.85 354.27-17.2 350.52-16.3L350.52-16.3ZM346.57-31.7L338.22-31.7 338.22-21.9 346.42-21.9Q349.52-21.9 351.07-23.35 352.62-24.8 352.62-26.85L352.62-26.85Q352.62-28.85 350.87-30.28 349.12-31.7 346.57-31.7L346.57-31.7ZM390.42-7L391.37-7 391.37 1 390.42 1Q390.42 0.65 390.27 0.3 390.12-0.05 389.87-0.05L389.87-0.05 364.42-0.05 364.42-1Q364.77-1 365.15-1.15 365.52-1.3 365.52-1.55L365.52-1.55 365.52-36.05Q365.52-36.3 365.15-36.45 364.77-36.6 364.42-36.6L364.42-36.6 364.42-37.55 388.57-37.55Q388.82-37.55 388.97-37.9 389.12-38.25 389.12-38.6L389.12-38.6 390.07-38.6 390.07-30.6 389.12-30.6Q389.12-30.95 388.97-31.3 388.82-31.65 388.57-31.65L388.57-31.65 371.97-31.65 371.97-22.85 386.12-22.85Q386.37-22.85 386.52-23.2 386.67-23.55 386.67-23.9L386.67-23.9 387.62-23.9 387.62-15.9 386.67-15.9Q386.67-16.25 386.52-16.6 386.37-16.95 386.12-16.95L386.12-16.95 371.97-16.95 371.97-5.95 389.87-5.95Q390.12-5.95 390.27-6.3 390.42-6.65 390.42-7L390.42-7Z" opacity="1" transform="matrix(1,0,0,1,0,0)" fill="#ffffff" class="slogan-text-1" data-fill-palette-color="quaternary" id="text-1"></path></svg></g></svg></g></svg></g></svg></g><g transform="matrix(1,0,0,1,40.713262274387006,0)"><svg viewBox="0 0 131.73191667838307 114.71811682425664" height="114.71811682425664" width="131.73191667838307"><g><svg xmlns="http://www.w3.org/2000/svg" data-name="Layer 1" viewBox="8.392050200791699 11.574874363927426 110.72589899163943 96.42512563607258" x="0" y="0" height="114.71811682425664" width="131.73191667838307" class="icon-icon-0" data-fill-palette-color="quaternary" id="icon-0"><path d="M118.85 105L65.49 12.58A2 2 0 0 0 62.02 12.58L8.66 105A2 2 0 0 0 10.39 108H117.12A2 2 0 0 0 118.85 107 2 2 0 0 0 118.85 105M13.85 104L63.75 17.58 113.65 104Z" fill="#ffffff" data-fill-palette-color="quaternary"></path><path d="M54.05 50.57A2 2 0 0 0 54.05 54.57C59.93 54.57 61.34 59.22 64.05 65.25L48.54 92.67A2 2 0 1 0 52.02 94.67L66.02 69.84C69.7 78 74.72 89.38 74.8 89.56A9.77 9.77 0 0 0 86.8 95.21 2 2 0 0 0 85.61 91.39 5.75 5.75 0 0 1 78.46 87.93C64.79 57 66.53 61.09 65.89 59.64 64.44 56.47 61.73 50.57 54.05 50.57" fill="#ffffff" data-fill-palette-color="quaternary"></path></svg></g></svg></g><g></g></svg></g></svg></g></svg></g></svg></g><defs></defs></svg><rect width="333.90454557049503" height="333.90454557049503" fill="none" stroke="none" visibility="hidden"></rect></g></svg></g></svg>